<?xml version="1.0" encoding="UTF-8" standalone="no"?>
<!DOCTYPE svg PUBLIC "-//W3C//DTD SVG 1.1//EN"
 "http://www.w3.org/Graphics/SVG/1.1/DTD/svg11.dtd">
<!-- Generated by graphviz version 12.1.2 (20240928.0832)
 -->
<!-- Title: Library_Management_DFA Pages: 1 -->
<svg width="681pt" height="449pt"
 viewBox="0.00 0.00 681.01 449.17" xmlns="http://www.w3.org/2000/svg" xmlns:xlink="http://www.w3.org/1999/xlink">
<g id="graph0" class="graph" transform="scale(1 1) rotate(0) translate(4 445.17)">
<title>Library_Management_DFA</title>
<polygon fill="white" stroke="none" points="-4,4 -4,-445.17 677.01,-445.17 677.01,4 -4,4"/>
<!-- Available -->
<g id="node1" class="node">
<title>Available</title>
<ellipse fill="none" stroke="black" cx="78.78" cy="-199.1" rx="38.18" ry="38.18"/>
<text text-anchor="middle" x="78.78" y="-193.3" font-family="SimSun" font-size="14.00">可借阅</text>
</g>
<!-- Checked Out -->
<g id="node2" class="node">
<title>Checked Out</title>
<ellipse fill="none" stroke="black" cx="347.54" cy="-354.1" rx="38.18" ry="38.18"/>
<ellipse fill="none" stroke="black" cx="347.54" cy="-354.1" rx="42.18" ry="42.18"/>
<text text-anchor="middle" x="347.54" y="-348.3" font-family="SimSun" font-size="14.00">已借出</text>
</g>
<!-- Available&#45;&gt;Checked Out -->
<g id="edge2" class="edge">
<title>Available&#45;&gt;Checked Out</title>
<path fill="none" stroke="black" d="M79.2,-237.72C80.72,-282.87 90.5,-356.68 134.97,-398.1 184.53,-444.25 225.5,-425.67 287.36,-398.1 293.65,-395.29 299.92,-391.72 305.88,-387.83"/>
<polygon fill="black" stroke="black" points="307.51,-390.96 313.73,-382.38 303.52,-385.21 307.51,-390.96"/>
<text text-anchor="middle" x="211.16" y="-427.87" font-family="SimSun" font-size="14.00">a</text>
</g>
<!-- Reserved -->
<g id="node3" class="node">
<title>Reserved</title>
<ellipse fill="none" stroke="black" cx="211.16" cy="-308.1" rx="38.18" ry="38.18"/>
<text text-anchor="middle" x="211.16" y="-302.3" font-family="SimSun" font-size="14.00">预约中</text>
</g>
<!-- Available&#45;&gt;Reserved -->
<g id="edge3" class="edge">
<title>Available&#45;&gt;Reserved</title>
<path fill="none" stroke="black" d="M105.62,-226.57C114.61,-235.66 124.96,-245.61 134.97,-254.1 145.79,-263.27 158.09,-272.54 169.56,-280.75"/>
<polygon fill="black" stroke="black" points="167.53,-283.59 177.72,-286.49 171.56,-277.87 167.53,-283.59"/>
<text text-anchor="middle" x="138.34" y="-260.59" font-family="SimSun" font-size="14.00">b</text>
</g>
<!-- Under Repair -->
<g id="node4" class="node">
<title>Under Repair</title>
<ellipse fill="none" stroke="black" cx="347.54" cy="-72.1" rx="38.18" ry="38.18"/>
<text text-anchor="middle" x="347.54" y="-66.3" font-family="SimSun" font-size="14.00">修复中</text>
</g>
<!-- Available&#45;&gt;Under Repair -->
<g id="edge4" class="edge">
<title>Available&#45;&gt;Under Repair</title>
<path fill="none" stroke="black" d="M94.46,-164.01C107.48,-137.7 129.18,-103.37 159.72,-86.1 201.97,-62.18 258.47,-61.4 298.23,-64.9"/>
<polygon fill="black" stroke="black" points="297.68,-68.36 307.98,-65.89 298.39,-61.4 297.68,-68.36"/>
<text text-anchor="middle" x="211.16" y="-87.8" font-family="SimSun" font-size="14.00">d</text>
</g>
<!-- Lost -->
<g id="node5" class="node">
<title>Lost</title>
<ellipse fill="none" stroke="black" cx="489.19" cy="-197.1" rx="28.92" ry="28.92"/>
<ellipse fill="none" stroke="black" cx="489.19" cy="-197.1" rx="32.92" ry="32.92"/>
<text text-anchor="middle" x="489.19" y="-191.3" font-family="SimSun" font-size="14.00">遗失</text>
</g>
<!-- Available&#45;&gt;Lost -->
<g id="edge6" class="edge">
<title>Available&#45;&gt;Lost</title>
<path fill="none" stroke="black" d="M115.17,-211.03C128.91,-215.09 144.88,-219.09 159.72,-221.1 261.87,-234.9 383.04,-217.36 445.79,-205.78"/>
<polygon fill="black" stroke="black" points="446.14,-209.27 455.32,-203.97 444.84,-202.39 446.14,-209.27"/>
<text text-anchor="middle" x="283.98" y="-226.97" font-family="SimSun" font-size="14.00">g</text>
</g>
<!-- Pending Disposal -->
<g id="node6" class="node">
<title>Pending Disposal</title>
<ellipse fill="none" stroke="black" cx="489.19" cy="-72.1" rx="56.71" ry="56.71"/>
<text text-anchor="middle" x="489.19" y="-66.3" font-family="SimSun" font-size="14.00">书籍将报废</text>
</g>
<!-- Available&#45;&gt;Pending Disposal -->
<g id="edge5" class="edge">
<title>Available&#45;&gt;Pending Disposal</title>
<path fill="none" stroke="black" d="M83.64,-160.91C90.43,-117.54 109.03,-49.7 159.72,-26.1 252.39,17.06 290.25,-1.55 389.73,-25.1 402.98,-28.23 416.55,-33.31 429.21,-39"/>
<polygon fill="black" stroke="black" points="427.7,-42.16 438.24,-43.24 430.68,-35.82 427.7,-42.16"/>
<text text-anchor="middle" x="283.98" y="-3.65" font-family="SimSun" font-size="14.00">e</text>
</g>
<!-- Library Use Only -->
<g id="node8" class="node">
<title>Library Use Only</title>
<ellipse fill="none" stroke="black" cx="211.16" cy="-161.1" rx="47.45" ry="47.45"/>
<ellipse fill="none" stroke="black" cx="211.16" cy="-161.1" rx="51.45" ry="51.45"/>
<text text-anchor="middle" x="211.16" y="-155.3" font-family="SimSun" font-size="14.00">馆藏保留</text>
</g>
<!-- Available&#45;&gt;Library Use Only -->
<g id="edge7" class="edge">
<title>Available&#45;&gt;Library Use Only</title>
<path fill="none" stroke="black" d="M108.8,-175.14C116.81,-169.83 125.83,-164.94 134.97,-162.1 139.19,-160.78 143.62,-159.79 148.12,-159.08"/>
<polygon fill="black" stroke="black" points="148.33,-162.57 157.87,-157.97 147.54,-155.62 148.33,-162.57"/>
<text text-anchor="middle" x="138.34" y="-163.8" font-family="SimSun" font-size="14.00">h</text>
</g>
<!-- Checked Out&#45;&gt;Available -->
<g id="edge8" class="edge">
<title>Checked Out&#45;&gt;Available</title>
<path fill="none" stroke="black" d="M306.49,-365.74C266.29,-374.96 204.14,-382.25 159.72,-355.1 121.72,-331.87 101.04,-284.21 90.3,-247.65"/>
<polygon fill="black" stroke="black" points="93.71,-246.86 87.68,-238.15 86.97,-248.73 93.71,-246.86"/>
<text text-anchor="middle" x="211.16" y="-375.78" font-family="SimSun" font-size="14.00">c</text>
</g>
<!-- Reserved&#45;&gt;Checked Out -->
<g id="edge9" class="edge">
<title>Reserved&#45;&gt;Checked Out</title>
<path fill="none" stroke="black" d="M241.93,-285.21C255.95,-277.31 272.75,-272.02 287.36,-279.1 300.43,-285.43 311.49,-296.21 320.38,-307.65"/>
<polygon fill="black" stroke="black" points="317.47,-309.6 326.15,-315.67 323.15,-305.51 317.47,-309.6"/>
<text text-anchor="middle" x="283.98" y="-280.8" font-family="SimSun" font-size="14.00">c</text>
</g>
<!-- Reserved&#45;&gt;Checked Out -->
<g id="edge10" class="edge">
<title>Reserved&#45;&gt;Checked Out</title>
<path fill="none" stroke="black" d="M247.65,-320.65C258.24,-324.37 269.89,-328.43 280.61,-332.1 285.69,-333.84 291,-335.64 296.31,-337.42"/>
<polygon fill="black" stroke="black" points="295.08,-340.7 305.68,-340.57 297.31,-334.07 295.08,-340.7"/>
<text text-anchor="middle" x="283.98" y="-335.61" font-family="SimSun" font-size="14.00">f</text>
</g>
<!-- Reserved&#45;&gt;Checked Out -->
<g id="edge11" class="edge">
<title>Reserved&#45;&gt;Checked Out</title>
<path fill="none" stroke="black" d="M249.67,-306.66C261.96,-307.21 275.5,-308.95 287.36,-313.1 293.26,-315.16 299.11,-317.98 304.71,-321.18"/>
<polygon fill="black" stroke="black" points="302.85,-324.15 313.19,-326.48 306.56,-318.21 302.85,-324.15"/>
<text text-anchor="middle" x="283.98" y="-314.8" font-family="SimSun" font-size="14.00">i</text>
</g>
<!-- Under Repair&#45;&gt;Available -->
<g id="edge12" class="edge">
<title>Under Repair&#45;&gt;Available</title>
<path fill="none" stroke="black" d="M313.23,-54.76C273.7,-36.82 207.19,-15.17 159.72,-44.1 121.88,-67.16 101.18,-114.51 90.39,-150.85"/>
<polygon fill="black" stroke="black" points="87.08,-149.7 87.76,-160.27 93.82,-151.58 87.08,-149.7"/>
<text text-anchor="middle" x="211.16" y="-45.8" font-family="SimSun" font-size="14.00">f</text>
</g>
<!-- Under Repair&#45;&gt;Lost -->
<g id="edge14" class="edge">
<title>Under Repair&#45;&gt;Lost</title>
<path fill="none" stroke="black" d="M376.8,-97.39C399.66,-117.85 431.85,-146.67 455.76,-168.07"/>
<polygon fill="black" stroke="black" points="453.24,-170.51 463.03,-174.58 457.91,-165.3 453.24,-170.51"/>
<text text-anchor="middle" x="411.1" y="-132.55" font-family="SimSun" font-size="14.00">g</text>
</g>
<!-- Under Repair&#45;&gt;Pending Disposal -->
<g id="edge13" class="edge">
<title>Under Repair&#45;&gt;Pending Disposal</title>
<path fill="none" stroke="black" d="M385.97,-72.1C396.68,-72.1 408.7,-72.1 420.63,-72.1"/>
<polygon fill="black" stroke="black" points="420.49,-75.6 430.49,-72.1 420.49,-68.6 420.49,-75.6"/>
<text text-anchor="middle" x="411.1" y="-73.8" font-family="SimSun" font-size="14.00">e</text>
</g>
<!-- Disposed -->
<g id="node7" class="node">
<title>Disposed</title>
<ellipse fill="none" stroke="black" cx="630.83" cy="-72.1" rx="38.18" ry="38.18"/>
<ellipse fill="none" stroke="black" cx="630.83" cy="-72.1" rx="42.18" ry="42.18"/>
<text text-anchor="middle" x="630.83" y="-66.3" font-family="SimSun" font-size="14.00">已报废</text>
</g>
<!-- Pending Disposal&#45;&gt;Disposed -->
<g id="edge19" class="edge">
<title>Pending Disposal&#45;&gt;Disposed</title>
<path fill="none" stroke="black" d="M546.18,-72.1C556.43,-72.1 567.1,-72.1 577.25,-72.1"/>
<polygon fill="black" stroke="black" points="576.93,-75.6 586.93,-72.1 576.93,-68.6 576.93,-75.6"/>
<text text-anchor="middle" x="567.27" y="-73.8" font-family="SimSun" font-size="14.00">j</text>
</g>
<!-- Library Use Only&#45;&gt;Available -->
<g id="edge15" class="edge">
<title>Library Use Only&#45;&gt;Available</title>
<path fill="none" stroke="black" d="M161.62,-175.24C150.22,-178.57 138.09,-182.1 126.76,-185.4"/>
<polygon fill="black" stroke="black" points="125.83,-182.03 117.21,-188.19 127.79,-188.75 125.83,-182.03"/>
<text text-anchor="middle" x="138.34" y="-184.07" font-family="SimSun" font-size="14.00">i</text>
</g>
<!-- Library Use Only&#45;&gt;Under Repair -->
<g id="edge16" class="edge">
<title>Library Use Only&#45;&gt;Under Repair</title>
<path fill="none" stroke="black" d="M254.68,-132.94C271.14,-122.04 289.89,-109.62 306.13,-98.86"/>
<polygon fill="black" stroke="black" points="307.71,-102.01 314.11,-93.57 303.84,-96.18 307.71,-102.01"/>
<text text-anchor="middle" x="283.98" y="-115.63" font-family="SimSun" font-size="14.00">d</text>
</g>
<!-- Library Use Only&#45;&gt;Lost -->
<g id="edge18" class="edge">
<title>Library Use Only&#45;&gt;Lost</title>
<path fill="none" stroke="black" d="M262.47,-167.66C314.73,-174.47 395.63,-185.02 445.05,-191.47"/>
<polygon fill="black" stroke="black" points="444.44,-194.92 454.8,-192.74 445.34,-187.98 444.44,-194.92"/>
<text text-anchor="middle" x="347.54" y="-185.55" font-family="SimSun" font-size="14.00">g</text>
</g>
<!-- Library Use Only&#45;&gt;Pending Disposal -->
<g id="edge17" class="edge">
<title>Library Use Only&#45;&gt;Pending Disposal</title>
<path fill="none" stroke="black" d="M262.85,-156.94C313.67,-152.23 388.07,-143.66 414.48,-132.1 422.86,-128.43 431.07,-123.53 438.79,-118.11"/>
<polygon fill="black" stroke="black" points="440.8,-120.98 446.72,-112.2 436.61,-115.37 440.8,-120.98"/>
<text text-anchor="middle" x="347.54" y="-154.1" font-family="SimSun" font-size="14.00">e</text>
</g>
<!-- start -->
<g id="node9" class="node">
<title>start</title>
<ellipse fill="black" stroke="black" cx="1.8" cy="-199.1" rx="1.8" ry="1.8"/>
</g>
<!-- start&#45;&gt;Available -->
<g id="edge1" class="edge">
<title>start&#45;&gt;Available</title>
<path fill="none" stroke="black" d="M3.86,-199.1C7.04,-199.1 17.02,-199.1 28.66,-199.1"/>
<polygon fill="black" stroke="black" points="28.65,-202.6 38.65,-199.1 28.65,-195.6 28.65,-202.6"/>
</g>
</g>
</svg>
